<svg xmlns="http://www.w3.org/2000/svg" viewBox="0 0 32 32" fill="none">
  <defs>
    <linearGradient id="grad" x1="0%" y1="0%" x2="100%" y2="100%">
      <stop offset="0%" style="stop-color:#6366f1"/>
      <stop offset="100%" style="stop-color:#a855f7"/>
    </linearGradient>
  </defs>
  <rect width="32" height="32" rx="6" fill="url(#grad)"/>
  <path d="M10 22V14a2 2 0 00-2-2H7a2 2 0 00-2 2v8a2 2 0 002 2h1a2 2 0 002-2zm0 0V11a2 2 0 012-2h1a2 2 0 012 2v11m-5 0a2 2 0 002 2h1a2 2 0 002-2m0 0V7a2 2 0 012-2h1a2 2 0 012 2v15a2 2 0 01-2 2h-1a2 2 0 01-2-2z" stroke="white" stroke-width="1.5" stroke-linecap="round" stroke-linejoin="round" fill="none"/>
</svg>
